<svg class="heart" width="30" height="30" viewBox="0 0 4000 4000" fill="none" xmlns="http://www.w3.org/2000/svg">
    <path fill-rule="evenodd" clip-rule="evenodd" d="M2090 350.744C2053.32 276.419 1947.33 276.419 1910.65 350.743L1435.81 1312.88C1421.24 1342.4 1393.09 1362.86 1360.51 1367.59L298.73 1521.87C216.708 1533.79 183.956 1634.59 243.308 1692.44L1011.62 2441.37C1013.61 2443.3 1015.51 2445.31 1017.31 2447.39L2837.83 1396.31L2640.14 1367.59C2607.57 1362.86 2579.41 1342.4 2564.84 1312.88L2090 350.744ZM3636.75 1512.4L948.714 3064.35L859.008 3587.37C844.997 3669.06 930.74 3731.36 1004.1 3692.79L1953.79 3193.51C1982.92 3178.19 2017.73 3178.19 2046.86 3193.51L2996.55 3692.79C3069.91 3731.36 3155.66 3669.06 3141.64 3587.37L2960.27 2529.88C2954.71 2497.44 2965.46 2464.34 2989.03 2441.37L3757.34 1692.44C3816.7 1634.59 3783.95 1533.79 3701.92 1521.87L3636.75 1512.4Z" fill="#FFFFFF"/>
</svg>