<svg width="150" height="208" viewBox="0 0 150 208" fill="none" xmlns="http://www.w3.org/2000/svg">
<rect x="26.6764" width="96.2099" height="12.6822" rx="6.34111" fill="white"/>
<path d="M0 207.289C0 200.043 5.87382 194.169 13.1195 194.169H136.88C144.126 194.169 150 200.043 150 207.289V207.289H0V207.289Z" fill="white"/>
<path d="M0 13.5569C0 9.93399 2.93691 6.99709 6.55977 6.99709H143.44C147.063 6.99709 150 9.93399 150 13.5569V13.5569C150 17.1797 147.063 20.1166 143.44 20.1166H6.55977C2.93691 20.1166 0 17.1797 0 13.5569V13.5569Z" fill="white"/>
<path fill-rule="evenodd" clip-rule="evenodd" d="M137.755 20.1166H12.2449V194.169L36.2974 194.169V164.431C36.2974 158.393 41.1922 153.499 47.2303 153.499H55.5394H74.7813H94.0233H102.332C108.37 153.499 113.265 158.393 113.265 164.431V194.169L137.755 194.169V20.1166ZM23.6152 34.5481C23.6152 29.7176 27.531 25.8017 32.3615 25.8017H43.2945C48.1249 25.8017 52.0408 29.7176 52.0408 34.5481V45.481C52.0408 50.3115 48.1249 54.2274 43.2945 54.2274H32.3615C27.531 54.2274 23.6152 50.3115 23.6152 45.481V34.5481ZM60.7872 34.5481C60.7872 29.7176 64.703 25.8017 69.5335 25.8017H80.4665C85.297 25.8017 89.2128 29.7176 89.2128 34.5481V45.481C89.2128 50.3115 85.297 54.2274 80.4665 54.2274H69.5335C64.703 54.2274 60.7872 50.3115 60.7872 45.481V34.5481ZM97.9592 34.5481C97.9592 29.7176 101.875 25.8017 106.706 25.8017H117.638C122.469 25.8017 126.385 29.7176 126.385 34.5481V45.481C126.385 50.3115 122.469 54.2274 117.638 54.2274H106.706C101.875 54.2274 97.9592 50.3115 97.9592 45.481V34.5481ZM23.6152 71.7201C23.6152 66.8896 27.531 62.9738 32.3615 62.9738H43.2945C48.1249 62.9738 52.0408 66.8896 52.0408 71.7201V82.6531C52.0408 87.4835 48.1249 91.3994 43.2945 91.3994H32.3615C27.531 91.3994 23.6152 87.4835 23.6152 82.6531V71.7201ZM60.7872 71.7201C60.7872 66.8896 64.703 62.9738 69.5335 62.9738H80.4665C85.297 62.9738 89.2128 66.8896 89.2128 71.7201V82.6531C89.2128 87.4835 85.297 91.3994 80.4665 91.3994H69.5335C64.703 91.3994 60.7872 87.4835 60.7872 82.6531V71.7201ZM97.9592 71.7201C97.9592 66.8896 101.875 62.9738 106.706 62.9738H117.638C122.469 62.9738 126.385 66.8896 126.385 71.7201V82.6531C126.385 87.4835 122.469 91.3994 117.638 91.3994H106.706C101.875 91.3994 97.9592 87.4835 97.9592 82.6531V71.7201ZM74.7813 101.458L79.4942 115.962H94.7452L82.4069 124.927L87.1197 139.431L74.7813 130.467L62.443 139.431L67.1558 124.927L54.8175 115.962H70.0685L74.7813 101.458ZM35.4227 108.455L38.5646 118.125H48.732L40.5064 124.101L43.6483 133.771L35.4227 127.794L27.1972 133.771L30.339 124.101L22.1135 118.125H32.2808L35.4227 108.455ZM117.282 118.125L114.14 108.455L110.998 118.125H100.831L109.056 124.101L105.914 133.771L114.14 127.794L122.365 133.771L119.224 124.101L127.449 118.125H117.282Z" fill="white"/>
</svg>